<mxfile host="app.diagrams.net" modified="2023-12-22T18:24:27.524Z" agent="Mozilla/5.0 (Windows NT 10.0; Win64; x64) AppleWebKit/537.36 (KHTML, like Gecko) Chrome/120.0.0.0 Safari/537.36" etag="GgqxKThzWTQg5k5G73Xf" version="22.1.11" type="google">
  <diagram name="Page-1" id="Ag6xRjZY8S9bi6nL02dM">
    <mxGraphModel dx="3195" dy="2113" grid="1" gridSize="10" guides="1" tooltips="1" connect="1" arrows="1" fold="1" page="1" pageScale="1" pageWidth="850" pageHeight="1100" math="0" shadow="0">
      <root>
        <mxCell id="0" />
        <mxCell id="1" parent="0" />
        <mxCell id="5CeVQXnwNvlEHX0_0vK--1" value="&amp;lt;&amp;lt;Cube&amp;gt;&amp;gt;&lt;br&gt;Publication" style="swimlane;fontStyle=0;childLayout=stackLayout;horizontal=1;startSize=30;horizontalStack=0;resizeParent=1;resizeParentMax=0;resizeLast=0;collapsible=1;marginBottom=0;whiteSpace=wrap;html=1;" parent="1" vertex="1">
          <mxGeometry x="300" y="280" width="160" height="80" as="geometry" />
        </mxCell>
        <mxCell id="5CeVQXnwNvlEHX0_0vK--2" value="&lt;font style=&quot;font-size: 10px;&quot;&gt;+ number_of_publications: int&lt;br&gt;+ version_has_nutrition_score: int&lt;br&gt;+ distinct_count_products: int&lt;br&gt;&lt;br&gt;&lt;/font&gt;" style="text;strokeColor=none;fillColor=none;align=left;verticalAlign=middle;spacingLeft=4;spacingRight=4;overflow=hidden;points=[[0,0.5],[1,0.5]];portConstraint=eastwest;rotatable=0;whiteSpace=wrap;html=1;" parent="5CeVQXnwNvlEHX0_0vK--1" vertex="1">
          <mxGeometry y="30" width="160" height="50" as="geometry" />
        </mxCell>
        <mxCell id="5CeVQXnwNvlEHX0_0vK--9" value="&amp;lt;&amp;lt;Level&amp;gt;&amp;gt;&lt;br&gt;Product" style="swimlane;fontStyle=0;childLayout=stackLayout;horizontal=1;startSize=30;horizontalStack=0;resizeParent=1;resizeParentMax=0;resizeLast=0;collapsible=1;marginBottom=0;whiteSpace=wrap;html=1;" parent="1" vertex="1">
          <mxGeometry x="797" y="280" width="120" height="80" as="geometry" />
        </mxCell>
        <mxCell id="5CeVQXnwNvlEHX0_0vK--10" value="&lt;font style=&quot;font-size: 10px;&quot;&gt;+ barcode: str&lt;br&gt;&lt;/font&gt;" style="text;strokeColor=none;fillColor=none;align=left;verticalAlign=middle;spacingLeft=4;spacingRight=4;overflow=hidden;points=[[0,0.5],[1,0.5]];portConstraint=eastwest;rotatable=0;whiteSpace=wrap;html=1;" parent="5CeVQXnwNvlEHX0_0vK--9" vertex="1">
          <mxGeometry y="30" width="120" height="50" as="geometry" />
        </mxCell>
        <mxCell id="5CeVQXnwNvlEHX0_0vK--12" value="&amp;lt;&amp;lt;Level&amp;gt;&amp;gt;&lt;br&gt;Product Group" style="swimlane;fontStyle=0;childLayout=stackLayout;horizontal=1;startSize=30;horizontalStack=0;resizeParent=1;resizeParentMax=0;resizeLast=0;collapsible=1;marginBottom=0;whiteSpace=wrap;html=1;" parent="1" vertex="1">
          <mxGeometry x="797" y="560" width="120" height="80" as="geometry" />
        </mxCell>
        <mxCell id="5CeVQXnwNvlEHX0_0vK--13" value="&lt;font style=&quot;font-size: 10px;&quot;&gt;+ product_group: str&lt;br&gt;&lt;/font&gt;" style="text;strokeColor=none;fillColor=none;align=left;verticalAlign=middle;spacingLeft=4;spacingRight=4;overflow=hidden;points=[[0,0.5],[1,0.5]];portConstraint=eastwest;rotatable=0;whiteSpace=wrap;html=1;" parent="5CeVQXnwNvlEHX0_0vK--12" vertex="1">
          <mxGeometry y="30" width="120" height="50" as="geometry" />
        </mxCell>
        <mxCell id="5CeVQXnwNvlEHX0_0vK--14" value="" style="endArrow=none;html=1;rounded=0;exitX=1;exitY=0.5;exitDx=0;exitDy=0;entryX=0;entryY=0.5;entryDx=0;entryDy=0;" parent="1" source="5CeVQXnwNvlEHX0_0vK--2" target="5CeVQXnwNvlEHX0_0vK--10" edge="1">
          <mxGeometry width="50" height="50" relative="1" as="geometry">
            <mxPoint x="510" y="370" as="sourcePoint" />
            <mxPoint x="560" y="320" as="targetPoint" />
          </mxGeometry>
        </mxCell>
        <mxCell id="5CeVQXnwNvlEHX0_0vK--16" value="0..*" style="edgeLabel;html=1;align=center;verticalAlign=middle;resizable=0;points=[];" parent="5CeVQXnwNvlEHX0_0vK--14" vertex="1" connectable="0">
          <mxGeometry x="-0.4444" relative="1" as="geometry">
            <mxPoint x="-73" y="-15" as="offset" />
          </mxGeometry>
        </mxCell>
        <mxCell id="5CeVQXnwNvlEHX0_0vK--17" value="1..1" style="edgeLabel;html=1;align=center;verticalAlign=middle;resizable=0;points=[];" parent="1" vertex="1" connectable="0">
          <mxGeometry x="780" y="322" as="geometry" />
        </mxCell>
        <mxCell id="5CeVQXnwNvlEHX0_0vK--20" value="&amp;lt;&amp;lt;Level&amp;gt;&amp;gt;&lt;br&gt;Contributor" style="swimlane;fontStyle=0;childLayout=stackLayout;horizontal=1;startSize=30;horizontalStack=0;resizeParent=1;resizeParentMax=0;resizeLast=0;collapsible=1;marginBottom=0;whiteSpace=wrap;html=1;" parent="1" vertex="1">
          <mxGeometry x="-50" y="280" width="140" height="80" as="geometry" />
        </mxCell>
        <mxCell id="5CeVQXnwNvlEHX0_0vK--21" value="&lt;font style=&quot;font-size: 10px;&quot;&gt;+ contributor: str&lt;br&gt;&lt;/font&gt;" style="text;strokeColor=none;fillColor=none;align=left;verticalAlign=middle;spacingLeft=4;spacingRight=4;overflow=hidden;points=[[0,0.5],[1,0.5]];portConstraint=eastwest;rotatable=0;whiteSpace=wrap;html=1;" parent="5CeVQXnwNvlEHX0_0vK--20" vertex="1">
          <mxGeometry y="30" width="140" height="50" as="geometry" />
        </mxCell>
        <mxCell id="5CeVQXnwNvlEHX0_0vK--27" value="1..1" style="edgeLabel;html=1;align=center;verticalAlign=middle;resizable=0;points=[];" parent="1" vertex="1" connectable="0">
          <mxGeometry x="190" y="286" as="geometry">
            <mxPoint x="-88" y="31" as="offset" />
          </mxGeometry>
        </mxCell>
        <mxCell id="5CeVQXnwNvlEHX0_0vK--28" value="" style="endArrow=none;html=1;rounded=0;entryX=0;entryY=0.5;entryDx=0;entryDy=0;" parent="1" edge="1">
          <mxGeometry width="50" height="50" relative="1" as="geometry">
            <mxPoint x="90" y="330" as="sourcePoint" />
            <mxPoint x="300" y="330" as="targetPoint" />
          </mxGeometry>
        </mxCell>
        <mxCell id="5CeVQXnwNvlEHX0_0vK--29" value="0..*" style="edgeLabel;html=1;align=center;verticalAlign=middle;resizable=0;points=[];" parent="5CeVQXnwNvlEHX0_0vK--28" vertex="1" connectable="0">
          <mxGeometry x="-0.4444" relative="1" as="geometry">
            <mxPoint x="132" y="-10" as="offset" />
          </mxGeometry>
        </mxCell>
        <mxCell id="5CeVQXnwNvlEHX0_0vK--30" value="&amp;lt;&amp;lt;Level&amp;gt;&amp;gt;&lt;br&gt;Nutrition score" style="swimlane;fontStyle=0;childLayout=stackLayout;horizontal=1;startSize=30;horizontalStack=0;resizeParent=1;resizeParentMax=0;resizeLast=0;collapsible=1;marginBottom=0;whiteSpace=wrap;html=1;" parent="1" vertex="1">
          <mxGeometry x="802" y="120" width="110" height="80" as="geometry" />
        </mxCell>
        <mxCell id="5CeVQXnwNvlEHX0_0vK--31" value="&lt;font style=&quot;font-size: 10px;&quot;&gt;+ nutrition_score: int&lt;br&gt;&lt;/font&gt;" style="text;strokeColor=none;fillColor=none;align=left;verticalAlign=middle;spacingLeft=4;spacingRight=4;overflow=hidden;points=[[0,0.5],[1,0.5]];portConstraint=eastwest;rotatable=0;whiteSpace=wrap;html=1;" parent="5CeVQXnwNvlEHX0_0vK--30" vertex="1">
          <mxGeometry y="30" width="110" height="50" as="geometry" />
        </mxCell>
        <mxCell id="5CeVQXnwNvlEHX0_0vK--33" value="&amp;lt;&amp;lt;Level&amp;gt;&amp;gt;&lt;br&gt;Nova group" style="swimlane;fontStyle=0;childLayout=stackLayout;horizontal=1;startSize=30;horizontalStack=0;resizeParent=1;resizeParentMax=0;resizeLast=0;collapsible=1;marginBottom=0;whiteSpace=wrap;html=1;" parent="1" vertex="1">
          <mxGeometry x="1009.65" y="282" width="100" height="80" as="geometry" />
        </mxCell>
        <mxCell id="5CeVQXnwNvlEHX0_0vK--34" value="&lt;font style=&quot;font-size: 10px;&quot;&gt;+ nova_group: str&lt;br&gt;&lt;/font&gt;" style="text;strokeColor=none;fillColor=none;align=left;verticalAlign=middle;spacingLeft=4;spacingRight=4;overflow=hidden;points=[[0,0.5],[1,0.5]];portConstraint=eastwest;rotatable=0;whiteSpace=wrap;html=1;" parent="5CeVQXnwNvlEHX0_0vK--33" vertex="1">
          <mxGeometry y="30" width="100" height="50" as="geometry" />
        </mxCell>
        <mxCell id="5CeVQXnwNvlEHX0_0vK--35" value="&amp;lt;&amp;lt;Level&amp;gt;&amp;gt;&lt;br&gt;Product Type" style="swimlane;fontStyle=0;childLayout=stackLayout;horizontal=1;startSize=30;horizontalStack=0;resizeParent=1;resizeParentMax=0;resizeLast=0;collapsible=1;marginBottom=0;whiteSpace=wrap;html=1;" parent="1" vertex="1">
          <mxGeometry x="797" y="420" width="120" height="80" as="geometry" />
        </mxCell>
        <mxCell id="5CeVQXnwNvlEHX0_0vK--36" value="&lt;font style=&quot;font-size: 10px;&quot;&gt;+ product_name: str&lt;br&gt;&lt;/font&gt;" style="text;strokeColor=none;fillColor=none;align=left;verticalAlign=middle;spacingLeft=4;spacingRight=4;overflow=hidden;points=[[0,0.5],[1,0.5]];portConstraint=eastwest;rotatable=0;whiteSpace=wrap;html=1;" parent="5CeVQXnwNvlEHX0_0vK--35" vertex="1">
          <mxGeometry y="30" width="120" height="50" as="geometry" />
        </mxCell>
        <mxCell id="5CeVQXnwNvlEHX0_0vK--37" value="0..*" style="edgeLabel;html=1;align=center;verticalAlign=middle;resizable=0;points=[];" parent="1" vertex="1" connectable="0">
          <mxGeometry x="867" y="410" as="geometry" />
        </mxCell>
        <mxCell id="5CeVQXnwNvlEHX0_0vK--39" value="1..1" style="edgeLabel;html=1;align=center;verticalAlign=middle;resizable=0;points=[];" parent="1" vertex="1" connectable="0">
          <mxGeometry x="867" y="370" as="geometry" />
        </mxCell>
        <mxCell id="5CeVQXnwNvlEHX0_0vK--40" value="0..*" style="edgeLabel;html=1;align=center;verticalAlign=middle;resizable=0;points=[];" parent="1" vertex="1" connectable="0">
          <mxGeometry x="867" y="550" as="geometry" />
        </mxCell>
        <mxCell id="5CeVQXnwNvlEHX0_0vK--41" value="1..1" style="edgeLabel;html=1;align=center;verticalAlign=middle;resizable=0;points=[];" parent="1" vertex="1" connectable="0">
          <mxGeometry x="867" y="510" as="geometry" />
        </mxCell>
        <mxCell id="5CeVQXnwNvlEHX0_0vK--42" value="" style="endArrow=none;html=1;rounded=0;exitX=0.5;exitY=0;exitDx=0;exitDy=0;entryX=0.505;entryY=1;entryDx=0;entryDy=0;entryPerimeter=0;" parent="1" edge="1">
          <mxGeometry width="50" height="50" relative="1" as="geometry">
            <mxPoint x="856.79" y="560" as="sourcePoint" />
            <mxPoint x="856.79" y="500" as="targetPoint" />
          </mxGeometry>
        </mxCell>
        <mxCell id="5CeVQXnwNvlEHX0_0vK--43" value="" style="endArrow=none;html=1;rounded=0;exitX=1;exitY=0.5;exitDx=0;exitDy=0;entryX=0;entryY=0.5;entryDx=0;entryDy=0;" parent="1" target="5CeVQXnwNvlEHX0_0vK--34" edge="1">
          <mxGeometry width="50" height="50" relative="1" as="geometry">
            <mxPoint x="917" y="337" as="sourcePoint" />
            <mxPoint x="1007" y="197" as="targetPoint" />
          </mxGeometry>
        </mxCell>
        <mxCell id="5CeVQXnwNvlEHX0_0vK--44" value="0..*" style="edgeLabel;html=1;align=center;verticalAlign=middle;resizable=0;points=[];" parent="5CeVQXnwNvlEHX0_0vK--43" vertex="1" connectable="0">
          <mxGeometry x="-0.4444" relative="1" as="geometry">
            <mxPoint x="-11" y="-11" as="offset" />
          </mxGeometry>
        </mxCell>
        <mxCell id="5CeVQXnwNvlEHX0_0vK--45" value="1..1" style="edgeLabel;html=1;align=center;verticalAlign=middle;resizable=0;points=[];" parent="1" vertex="1" connectable="0">
          <mxGeometry x="992.65" y="326" as="geometry" />
        </mxCell>
        <mxCell id="5CeVQXnwNvlEHX0_0vK--46" value="0..*" style="edgeLabel;html=1;align=center;verticalAlign=middle;resizable=0;points=[];" parent="1" vertex="1" connectable="0">
          <mxGeometry x="867" y="270" as="geometry" />
        </mxCell>
        <mxCell id="5CeVQXnwNvlEHX0_0vK--48" value="1..1" style="edgeLabel;html=1;align=center;verticalAlign=middle;resizable=0;points=[];" parent="1" vertex="1" connectable="0">
          <mxGeometry x="867" y="210" as="geometry" />
        </mxCell>
        <mxCell id="5CeVQXnwNvlEHX0_0vK--51" value="" style="endArrow=none;html=1;rounded=0;exitX=0.499;exitY=1.025;exitDx=0;exitDy=0;entryX=0.5;entryY=0;entryDx=0;entryDy=0;exitPerimeter=0;" parent="1" source="5CeVQXnwNvlEHX0_0vK--31" target="5CeVQXnwNvlEHX0_0vK--9" edge="1">
          <mxGeometry width="50" height="50" relative="1" as="geometry">
            <mxPoint x="717" y="366" as="sourcePoint" />
            <mxPoint x="807" y="366" as="targetPoint" />
          </mxGeometry>
        </mxCell>
        <mxCell id="5CeVQXnwNvlEHX0_0vK--53" value="&amp;lt;&amp;lt;Level&amp;gt;&amp;gt;&lt;br&gt;Day" style="swimlane;fontStyle=0;childLayout=stackLayout;horizontal=1;startSize=30;horizontalStack=0;resizeParent=1;resizeParentMax=0;resizeLast=0;collapsible=1;marginBottom=0;whiteSpace=wrap;html=1;" parent="1" vertex="1">
          <mxGeometry x="335" y="90" width="90" height="80" as="geometry" />
        </mxCell>
        <mxCell id="5CeVQXnwNvlEHX0_0vK--54" value="&lt;font style=&quot;font-size: 10px;&quot;&gt;+ day: int&lt;br&gt;&lt;/font&gt;" style="text;strokeColor=none;fillColor=none;align=left;verticalAlign=middle;spacingLeft=4;spacingRight=4;overflow=hidden;points=[[0,0.5],[1,0.5]];portConstraint=eastwest;rotatable=0;whiteSpace=wrap;html=1;" parent="5CeVQXnwNvlEHX0_0vK--53" vertex="1">
          <mxGeometry y="30" width="90" height="50" as="geometry" />
        </mxCell>
        <mxCell id="5CeVQXnwNvlEHX0_0vK--59" value="0..*" style="edgeLabel;html=1;align=center;verticalAlign=middle;resizable=0;points=[];" parent="1" vertex="1" connectable="0">
          <mxGeometry x="390" y="270" as="geometry" />
        </mxCell>
        <mxCell id="5CeVQXnwNvlEHX0_0vK--60" value="" style="endArrow=none;html=1;rounded=0;exitX=0.5;exitY=0;exitDx=0;exitDy=0;entryX=0.495;entryY=1.003;entryDx=0;entryDy=0;entryPerimeter=0;" parent="1" source="5CeVQXnwNvlEHX0_0vK--1" target="5CeVQXnwNvlEHX0_0vK--54" edge="1">
          <mxGeometry width="50" height="50" relative="1" as="geometry">
            <mxPoint x="540" y="230" as="sourcePoint" />
            <mxPoint x="540" y="170" as="targetPoint" />
          </mxGeometry>
        </mxCell>
        <mxCell id="5CeVQXnwNvlEHX0_0vK--61" value="1..1" style="edgeLabel;html=1;align=center;verticalAlign=middle;resizable=0;points=[];" parent="1" vertex="1" connectable="0">
          <mxGeometry x="390" y="180" as="geometry" />
        </mxCell>
        <mxCell id="5CeVQXnwNvlEHX0_0vK--63" value="&amp;lt;&amp;lt;Level&amp;gt;&amp;gt;&lt;br&gt;Month" style="swimlane;fontStyle=0;childLayout=stackLayout;horizontal=1;startSize=30;horizontalStack=0;resizeParent=1;resizeParentMax=0;resizeLast=0;collapsible=1;marginBottom=0;whiteSpace=wrap;html=1;" parent="1" vertex="1">
          <mxGeometry x="335" y="-50" width="90" height="80" as="geometry" />
        </mxCell>
        <mxCell id="5CeVQXnwNvlEHX0_0vK--64" value="&lt;font style=&quot;font-size: 10px;&quot;&gt;+ month: int&lt;br&gt;&lt;/font&gt;" style="text;strokeColor=none;fillColor=none;align=left;verticalAlign=middle;spacingLeft=4;spacingRight=4;overflow=hidden;points=[[0,0.5],[1,0.5]];portConstraint=eastwest;rotatable=0;whiteSpace=wrap;html=1;" parent="5CeVQXnwNvlEHX0_0vK--63" vertex="1">
          <mxGeometry y="30" width="90" height="50" as="geometry" />
        </mxCell>
        <mxCell id="5CeVQXnwNvlEHX0_0vK--65" value="0..*" style="edgeLabel;html=1;align=center;verticalAlign=middle;resizable=0;points=[];" parent="1" vertex="1" connectable="0">
          <mxGeometry x="390" y="80" as="geometry" />
        </mxCell>
        <mxCell id="5CeVQXnwNvlEHX0_0vK--66" value="" style="endArrow=none;html=1;rounded=0;exitX=0.5;exitY=0;exitDx=0;exitDy=0;entryX=0.495;entryY=1.003;entryDx=0;entryDy=0;entryPerimeter=0;" parent="1" target="5CeVQXnwNvlEHX0_0vK--64" edge="1">
          <mxGeometry width="50" height="50" relative="1" as="geometry">
            <mxPoint x="380" y="90" as="sourcePoint" />
            <mxPoint x="540" y="-20" as="targetPoint" />
          </mxGeometry>
        </mxCell>
        <mxCell id="5CeVQXnwNvlEHX0_0vK--67" value="1..1" style="edgeLabel;html=1;align=center;verticalAlign=middle;resizable=0;points=[];" parent="1" vertex="1" connectable="0">
          <mxGeometry x="390" y="40" as="geometry" />
        </mxCell>
        <mxCell id="5CeVQXnwNvlEHX0_0vK--68" value="&amp;lt;&amp;lt;Level&amp;gt;&amp;gt;&lt;br&gt;Year" style="swimlane;fontStyle=0;childLayout=stackLayout;horizontal=1;startSize=30;horizontalStack=0;resizeParent=1;resizeParentMax=0;resizeLast=0;collapsible=1;marginBottom=0;whiteSpace=wrap;html=1;" parent="1" vertex="1">
          <mxGeometry x="335" y="-190" width="90" height="80" as="geometry" />
        </mxCell>
        <mxCell id="5CeVQXnwNvlEHX0_0vK--69" value="&lt;font style=&quot;font-size: 10px;&quot;&gt;+ year: int&lt;br&gt;&lt;/font&gt;" style="text;strokeColor=none;fillColor=none;align=left;verticalAlign=middle;spacingLeft=4;spacingRight=4;overflow=hidden;points=[[0,0.5],[1,0.5]];portConstraint=eastwest;rotatable=0;whiteSpace=wrap;html=1;" parent="5CeVQXnwNvlEHX0_0vK--68" vertex="1">
          <mxGeometry y="30" width="90" height="50" as="geometry" />
        </mxCell>
        <mxCell id="5CeVQXnwNvlEHX0_0vK--70" value="0..*" style="edgeLabel;html=1;align=center;verticalAlign=middle;resizable=0;points=[];" parent="1" vertex="1" connectable="0">
          <mxGeometry x="390" y="-60" as="geometry" />
        </mxCell>
        <mxCell id="5CeVQXnwNvlEHX0_0vK--71" value="" style="endArrow=none;html=1;rounded=0;exitX=0.5;exitY=0;exitDx=0;exitDy=0;entryX=0.495;entryY=1.003;entryDx=0;entryDy=0;entryPerimeter=0;" parent="1" target="5CeVQXnwNvlEHX0_0vK--69" edge="1">
          <mxGeometry width="50" height="50" relative="1" as="geometry">
            <mxPoint x="380" y="-50" as="sourcePoint" />
            <mxPoint x="540" y="-160" as="targetPoint" />
          </mxGeometry>
        </mxCell>
        <mxCell id="5CeVQXnwNvlEHX0_0vK--72" value="1..1" style="edgeLabel;html=1;align=center;verticalAlign=middle;resizable=0;points=[];" parent="1" vertex="1" connectable="0">
          <mxGeometry x="390" y="-100" as="geometry" />
        </mxCell>
        <mxCell id="5CeVQXnwNvlEHX0_0vK--73" value="" style="endArrow=none;html=1;rounded=0;exitX=0.5;exitY=0;exitDx=0;exitDy=0;entryX=0.495;entryY=1.003;entryDx=0;entryDy=0;entryPerimeter=0;" parent="1" edge="1">
          <mxGeometry width="50" height="50" relative="1" as="geometry">
            <mxPoint x="856.78" y="420" as="sourcePoint" />
            <mxPoint x="856.78" y="360" as="targetPoint" />
          </mxGeometry>
        </mxCell>
        <mxCell id="3vQPduT3U-iWXJD3_zhZ-1" value="" style="endArrow=none;html=1;rounded=0;exitX=0.425;exitY=0.001;exitDx=0;exitDy=0;entryX=0.362;entryY=0.989;entryDx=0;entryDy=0;entryPerimeter=0;exitPerimeter=0;" parent="1" source="5CeVQXnwNvlEHX0_0vK--1" target="5CeVQXnwNvlEHX0_0vK--54" edge="1">
          <mxGeometry width="50" height="50" relative="1" as="geometry">
            <mxPoint x="390" y="290" as="sourcePoint" />
            <mxPoint x="390" y="230" as="targetPoint" />
          </mxGeometry>
        </mxCell>
        <mxCell id="3vQPduT3U-iWXJD3_zhZ-2" value="1..1" style="edgeLabel;html=1;align=center;verticalAlign=middle;resizable=0;points=[];" parent="1" connectable="0" vertex="1">
          <mxGeometry x="350" y="180" as="geometry" />
        </mxCell>
        <mxCell id="3vQPduT3U-iWXJD3_zhZ-3" value="0..*" style="edgeLabel;html=1;align=center;verticalAlign=middle;resizable=0;points=[];" parent="1" connectable="0" vertex="1">
          <mxGeometry x="390" y="280" as="geometry">
            <mxPoint x="-41" y="-11" as="offset" />
          </mxGeometry>
        </mxCell>
        <mxCell id="3vQPduT3U-iWXJD3_zhZ-4" value="Time_modified" style="edgeLabel;html=1;align=center;verticalAlign=middle;resizable=0;points=[];" parent="1" connectable="0" vertex="1">
          <mxGeometry x="335" y="235" as="geometry">
            <mxPoint x="-9" y="2" as="offset" />
          </mxGeometry>
        </mxCell>
        <mxCell id="3vQPduT3U-iWXJD3_zhZ-5" value="Time_created" style="edgeLabel;html=1;align=center;verticalAlign=middle;resizable=0;points=[];" parent="1" connectable="0" vertex="1">
          <mxGeometry x="430" y="235" as="geometry">
            <mxPoint x="-9" y="2" as="offset" />
          </mxGeometry>
        </mxCell>
        <mxCell id="3vQPduT3U-iWXJD3_zhZ-7" value="&amp;lt;&amp;lt;Cube&amp;gt;&amp;gt;&lt;br&gt;Food score" style="swimlane;fontStyle=0;childLayout=stackLayout;horizontal=1;startSize=30;horizontalStack=0;resizeParent=1;resizeParentMax=0;resizeLast=0;collapsible=1;marginBottom=0;whiteSpace=wrap;html=1;" parent="1" vertex="1">
          <mxGeometry x="300" y="550" width="160" height="80" as="geometry" />
        </mxCell>
        <mxCell id="3vQPduT3U-iWXJD3_zhZ-8" value="&lt;font style=&quot;font-size: 10px;&quot;&gt;+ avg_score: float&lt;br&gt;+ avg_score_letter: str&lt;br&gt;+ product_count: int&lt;br&gt;&lt;/font&gt;" style="text;strokeColor=none;fillColor=none;align=left;verticalAlign=middle;spacingLeft=4;spacingRight=4;overflow=hidden;points=[[0,0.5],[1,0.5]];portConstraint=eastwest;rotatable=0;whiteSpace=wrap;html=1;" parent="3vQPduT3U-iWXJD3_zhZ-7" vertex="1">
          <mxGeometry y="30" width="160" height="50" as="geometry" />
        </mxCell>
        <mxCell id="3vQPduT3U-iWXJD3_zhZ-9" value="&lt;b&gt;Shared Dimension&lt;br&gt;&quot;Product&quot;&lt;/b&gt;" style="text;html=1;align=center;verticalAlign=middle;resizable=0;points=[];autosize=1;strokeColor=none;fillColor=none;" parent="1" vertex="1">
          <mxGeometry x="550" y="286" width="130" height="40" as="geometry" />
        </mxCell>
        <mxCell id="3vQPduT3U-iWXJD3_zhZ-10" value="" style="rounded=0;whiteSpace=wrap;html=1;fillColor=none;dashed=1;" parent="1" vertex="1">
          <mxGeometry x="730" y="-44" width="400" height="714" as="geometry" />
        </mxCell>
        <mxCell id="3vQPduT3U-iWXJD3_zhZ-11" value="&lt;span&gt;Product Dimension&lt;/span&gt;" style="text;html=1;align=center;verticalAlign=middle;resizable=0;points=[];autosize=1;strokeColor=none;fillColor=none;fontStyle=1" parent="1" vertex="1">
          <mxGeometry x="856" y="-74" width="130" height="30" as="geometry" />
        </mxCell>
        <mxCell id="3vQPduT3U-iWXJD3_zhZ-13" value="" style="endArrow=none;html=1;rounded=0;exitX=1;exitY=0.5;exitDx=0;exitDy=0;entryX=-0.013;entryY=1.025;entryDx=0;entryDy=0;entryPerimeter=0;" parent="1" source="3vQPduT3U-iWXJD3_zhZ-8" target="5CeVQXnwNvlEHX0_0vK--10" edge="1">
          <mxGeometry width="50" height="50" relative="1" as="geometry">
            <mxPoint x="470" y="345" as="sourcePoint" />
            <mxPoint x="807" y="345" as="targetPoint" />
          </mxGeometry>
        </mxCell>
        <mxCell id="3vQPduT3U-iWXJD3_zhZ-14" value="0..*" style="edgeLabel;html=1;align=center;verticalAlign=middle;resizable=0;points=[];" parent="3vQPduT3U-iWXJD3_zhZ-13" connectable="0" vertex="1">
          <mxGeometry x="-0.4444" relative="1" as="geometry">
            <mxPoint x="-80" y="76" as="offset" />
          </mxGeometry>
        </mxCell>
        <mxCell id="3vQPduT3U-iWXJD3_zhZ-16" value="&lt;b&gt;Shared Dimension&lt;br&gt;&quot;Contributor&quot;&lt;/b&gt;" style="text;html=1;align=center;verticalAlign=middle;resizable=0;points=[];autosize=1;strokeColor=none;fillColor=none;" parent="1" vertex="1">
          <mxGeometry x="120" y="286" width="130" height="40" as="geometry" />
        </mxCell>
        <mxCell id="3vQPduT3U-iWXJD3_zhZ-17" value="" style="rounded=0;whiteSpace=wrap;html=1;fillColor=none;dashed=1;" parent="1" vertex="1">
          <mxGeometry x="-80" y="257" width="200" height="130" as="geometry" />
        </mxCell>
        <mxCell id="3vQPduT3U-iWXJD3_zhZ-18" value="&lt;b&gt;Contributor Dimension&lt;/b&gt;" style="text;html=1;align=center;verticalAlign=middle;resizable=0;points=[];autosize=1;strokeColor=none;fillColor=none;" parent="1" vertex="1">
          <mxGeometry x="-55" y="226" width="150" height="30" as="geometry" />
        </mxCell>
        <mxCell id="3vQPduT3U-iWXJD3_zhZ-20" value="" style="endArrow=none;html=1;rounded=0;exitX=0;exitY=0.5;exitDx=0;exitDy=0;" parent="1" source="3vQPduT3U-iWXJD3_zhZ-8" edge="1">
          <mxGeometry width="50" height="50" relative="1" as="geometry">
            <mxPoint x="30" y="550" as="sourcePoint" />
            <mxPoint x="10" y="360" as="targetPoint" />
          </mxGeometry>
        </mxCell>
        <mxCell id="3vQPduT3U-iWXJD3_zhZ-21" value="" style="rounded=0;whiteSpace=wrap;html=1;fillColor=none;dashed=1;" parent="1" vertex="1">
          <mxGeometry x="280" y="-215" width="200" height="425" as="geometry" />
        </mxCell>
        <mxCell id="3vQPduT3U-iWXJD3_zhZ-22" value="&lt;b&gt;Time Dimension&lt;/b&gt;" style="text;html=1;align=center;verticalAlign=middle;resizable=0;points=[];autosize=1;strokeColor=none;fillColor=none;" parent="1" vertex="1">
          <mxGeometry x="320" y="-245" width="120" height="30" as="geometry" />
        </mxCell>
        <mxCell id="3vQPduT3U-iWXJD3_zhZ-23" value="&lt;b&gt;Shared Dimension&lt;br&gt;&quot;Contributor&quot;&lt;/b&gt;" style="text;html=1;align=center;verticalAlign=middle;resizable=0;points=[];autosize=1;strokeColor=none;fillColor=none;" parent="1" vertex="1">
          <mxGeometry x="150" y="460" width="130" height="40" as="geometry" />
        </mxCell>
        <mxCell id="3vQPduT3U-iWXJD3_zhZ-24" value="&lt;b&gt;Shared Dimension&lt;br&gt;&quot;Product&quot;&lt;/b&gt;" style="text;html=1;align=center;verticalAlign=middle;resizable=0;points=[];autosize=1;strokeColor=none;fillColor=none;" parent="1" vertex="1">
          <mxGeometry x="510" y="440" width="130" height="40" as="geometry" />
        </mxCell>
        <mxCell id="D5z0ZOpOX_eqJQRSHQiW-2" value="1..1" style="edgeLabel;html=1;align=center;verticalAlign=middle;resizable=0;points=[];" parent="1" connectable="0" vertex="1">
          <mxGeometry x="90" y="340" as="geometry">
            <mxPoint x="-88" y="31" as="offset" />
          </mxGeometry>
        </mxCell>
        <mxCell id="D5z0ZOpOX_eqJQRSHQiW-3" value="0..*" style="edgeLabel;html=1;align=center;verticalAlign=middle;resizable=0;points=[];" parent="1" connectable="0" vertex="1">
          <mxGeometry x="300" y="423" as="geometry">
            <mxPoint x="-20" y="188" as="offset" />
          </mxGeometry>
        </mxCell>
        <mxCell id="D5z0ZOpOX_eqJQRSHQiW-4" value="1..1" style="edgeLabel;html=1;align=center;verticalAlign=middle;resizable=0;points=[];" parent="1" connectable="0" vertex="1">
          <mxGeometry x="770" y="310" as="geometry">
            <mxPoint x="10" y="46" as="offset" />
          </mxGeometry>
        </mxCell>
        <mxCell id="D5z0ZOpOX_eqJQRSHQiW-5" value="&amp;lt;&amp;lt;Level&amp;gt;&amp;gt;&lt;br&gt;Nutrition Letter" style="swimlane;fontStyle=0;childLayout=stackLayout;horizontal=1;startSize=30;horizontalStack=0;resizeParent=1;resizeParentMax=0;resizeLast=0;collapsible=1;marginBottom=0;whiteSpace=wrap;html=1;" parent="1" vertex="1">
          <mxGeometry x="802" y="-20" width="110" height="80" as="geometry" />
        </mxCell>
        <mxCell id="D5z0ZOpOX_eqJQRSHQiW-6" value="&lt;font style=&quot;font-size: 10px;&quot;&gt;+ nutrition_letter: str&lt;br&gt;&lt;/font&gt;" style="text;strokeColor=none;fillColor=none;align=left;verticalAlign=middle;spacingLeft=4;spacingRight=4;overflow=hidden;points=[[0,0.5],[1,0.5]];portConstraint=eastwest;rotatable=0;whiteSpace=wrap;html=1;" parent="D5z0ZOpOX_eqJQRSHQiW-5" vertex="1">
          <mxGeometry y="30" width="110" height="50" as="geometry" />
        </mxCell>
        <mxCell id="D5z0ZOpOX_eqJQRSHQiW-7" value="0..*" style="edgeLabel;html=1;align=center;verticalAlign=middle;resizable=0;points=[];" parent="1" connectable="0" vertex="1">
          <mxGeometry x="877" y="280" as="geometry">
            <mxPoint x="-6" y="-170" as="offset" />
          </mxGeometry>
        </mxCell>
        <mxCell id="D5z0ZOpOX_eqJQRSHQiW-8" value="1..1" style="edgeLabel;html=1;align=center;verticalAlign=middle;resizable=0;points=[];" parent="1" connectable="0" vertex="1">
          <mxGeometry x="882" y="226" as="geometry">
            <mxPoint x="-12" y="-153" as="offset" />
          </mxGeometry>
        </mxCell>
        <mxCell id="D5z0ZOpOX_eqJQRSHQiW-10" value="" style="endArrow=none;html=1;rounded=0;entryX=0.5;entryY=0;entryDx=0;entryDy=0;" parent="1" target="5CeVQXnwNvlEHX0_0vK--30" edge="1">
          <mxGeometry width="50" height="50" relative="1" as="geometry">
            <mxPoint x="857" y="60" as="sourcePoint" />
            <mxPoint x="857" y="121" as="targetPoint" />
          </mxGeometry>
        </mxCell>
      </root>
    </mxGraphModel>
  </diagram>
</mxfile>
